<?xml version="1.0" standalone="no"?>
<!DOCTYPE svg PUBLIC "-//W3C//DTD SVG 20010904//EN"
 "http://www.w3.org/TR/2001/REC-SVG-20010904/DTD/svg10.dtd">
<svg version="1.0" xmlns="http://www.w3.org/2000/svg"
 width="355.000000pt" height="355.000000pt" viewBox="0 0 355.000000 355.000000"
 preserveAspectRatio="xMidYMid meet">
<metadata>
Created by potrace 1.14, written by Peter Selinger 2001-2017
</metadata>
<g transform="translate(0.000000,355.000000) scale(0.100000,-0.100000)"
fill="#000000" stroke="none">
<path d="M1552 3449 c-13 -5 -33 -11 -45 -13 -69 -12 -153 -45 -255 -99 -89
-46 -131 -76 -185 -129 -78 -78 -91 -78 -88 2 1 27 -3 50 -7 50 -15 0 -74
-130 -77 -168 -1 -24 -7 -38 -18 -40 -20 -4 -29 -43 -42 -172 -4 -30 -8 -66
-11 -80 -3 -14 -8 -36 -10 -50 -3 -14 -10 -42 -15 -64 -6 -21 -8 -40 -5 -43 8
-9 -33 -62 -92 -121 -63 -62 -115 -145 -136 -216 -22 -73 -49 -112 -96 -136
-22 -11 -64 -42 -93 -68 -29 -26 -74 -61 -100 -79 -84 -58 -84 -143 0 -194 53
-31 73 -58 73 -100 0 -19 6 -43 12 -52 14 -17 88 -47 118 -47 10 0 29 -13 42
-29 27 -31 58 -51 81 -51 12 0 11 8 -6 41 -24 49 -11 75 19 37 36 -45 104 -84
126 -71 4 2 -2 22 -12 46 -24 52 -25 69 -2 97 14 17 30 22 77 24 95 5 149 -26
158 -89 8 -55 -50 -139 -110 -160 -43 -15 -74 -5 -98 32 -9 12 -20 23 -24 23
-14 0 -18 -31 -10 -62 9 -35 -3 -36 -21 -3 -7 14 -17 25 -22 25 -18 0 -7 -54
17 -82 14 -16 26 -36 26 -44 5 -52 51 -156 92 -204 43 -52 78 -68 137 -64 59
3 114 32 180 94 25 23 79 67 120 98 41 31 77 59 80 62 3 3 37 31 77 63 90 71
127 110 155 165 26 47 38 53 39 20 0 -13 3 -34 7 -48 4 -14 6 -53 6 -87 0 -35
1 -63 3 -63 5 0 76 156 93 206 17 48 33 150 33 210 0 57 25 10 55 -102 25 -95
21 -227 -11 -317 -18 -53 -143 -213 -194 -248 -24 -16 -111 -58 -194 -94 -171
-72 -213 -98 -270 -166 -140 -167 -152 -378 -31 -536 26 -35 38 -41 39 -20 2
68 20 167 43 234 45 134 112 207 273 293 84 46 108 49 53 7 -115 -89 -186
-209 -191 -330 -7 -150 30 -245 142 -355 41 -41 77 -72 79 -69 3 3 -4 31 -15
63 -11 33 -22 93 -25 134 l-5 75 21 -30 c52 -70 150 -144 257 -191 99 -45 181
-73 181 -64 0 6 -8 26 -18 44 -14 25 -18 52 -16 98 6 164 32 226 141 331 203
195 272 279 350 433 58 111 114 269 116 326 2 45 4 46 17 12 17 -45 25 -155
24 -349 -1 -178 -3 -199 -33 -330 -18 -77 -38 -146 -43 -153 -6 -7 -8 -16 -4
-19 4 -4 10 -3 14 3 4 5 27 25 52 44 101 79 160 168 194 292 27 97 26 92 26
120 0 24 12 17 17 -10 2 -9 5 -66 7 -127 6 -177 -34 -309 -120 -405 -43 -48
-35 -51 29 -11 89 57 222 218 277 337 54 117 121 325 135 419 3 22 7 51 10 65
20 121 25 211 24 365 -2 194 -16 272 -72 415 -56 141 -214 409 -287 488 -43
46 -13 29 75 -42 131 -106 255 -241 307 -333 44 -78 148 -312 148 -332 0 -14
20 -15 21 -1 5 59 -3 183 -16 260 -3 14 -7 41 -10 60 -3 19 -10 51 -15 70 -5
19 -11 47 -14 61 -16 92 -115 305 -186 400 -56 74 -183 207 -255 265 -66 54
-223 161 -305 208 l-65 37 90 -6 c121 -7 152 -12 208 -36 49 -20 79 -17 44 5
-10 6 -44 29 -76 52 -31 23 -91 60 -133 83 -81 44 -263 121 -289 121 -8 0 -20
5 -27 12 -7 7 -12 9 -12 5 0 -4 -8 -4 -17 2 -33 17 -118 25 -263 26 -147 0
-194 -4 -285 -25 -76 -18 -75 -17 -150 -40 -156 -48 -167 -31 -38 57 40 28 70
53 66 57 -8 8 -12 7 -41 -5z m-637 -699 c-3 -5 -12 -10 -18 -10 -7 0 -6 4 3
10 19 12 23 12 15 0z"/>
</g>
</svg>
